<svg width="12" height="12" viewBox="0 0 12 12" fill="none" xmlns="http://www.w3.org/2000/svg">
<path d="M0.710469 2.20998C0.320469 1.81998 0.320469 1.18 0.710469 0.789998L0.800465 0.70998C1.19047 0.31998 1.82047 0.31998 2.21047 0.70998L6.00046 4.49999L9.79047 0.70998C10.1805 0.31998 10.8205 0.31998 11.2105 0.70998L11.2905 0.789998C11.6805 1.18 11.6805 1.81998 11.2905 2.20998L7.50046 5.99999L11.2905 9.79C11.6805 10.18 11.6805 10.82 11.2905 11.21L11.2105 11.29C10.8205 11.68 10.1805 11.68 9.79047 11.29L6.00046 7.49999L2.21047 11.29C1.82047 11.68 1.19047 11.68 0.800465 11.29L0.710469 11.21C0.320469 10.82 0.320469 10.18 0.710469 9.79L4.50046 5.99999L0.710469 2.20998Z" fill="white"/>
</svg>
