<svg width="16" height="16" viewBox="0 0 16 16" fill="none" xmlns="http://www.w3.org/2000/svg">
<path d="M15.0927 14.6736L10.8175 10.2649C11.7244 9.21212 12.3073 7.8303 12.3073 6.25108C12.3073 2.82944 9.52199 0 6.15367 0C2.78534 0 0 2.82944 0 6.25108C0 9.67273 2.78534 12.5022 6.15367 12.5022C7.77305 12.5022 9.26289 11.8442 10.3641 10.7913L14.6393 15.1342C14.704 15.2 14.7688 15.2 14.8984 15.2C14.9631 15.2 15.0927 15.2 15.1575 15.1342C15.2222 15.0684 15.2222 14.8052 15.0927 14.6736ZM0.647754 6.25108C0.647754 3.15844 3.10922 0.658009 6.15367 0.658009C9.19811 0.658009 11.6596 3.15844 11.6596 6.25108C11.6596 7.7645 11.0766 9.08052 10.1697 10.0675C9.13334 11.1861 7.70828 11.8442 6.15367 11.8442C3.10922 11.8442 0.647754 9.34372 0.647754 6.25108Z" fill="#949494"/>
</svg>
