<svg width="25" height="25" viewBox="0 0 25 25" fill="none" xmlns="http://www.w3.org/2000/svg">
<path fill-rule="evenodd" clip-rule="evenodd" d="M2.91992 12.3C2.91992 6.78005 7.39992 2.30005 12.9199 2.30005C18.4399 2.30005 22.9199 6.78005 22.9199 12.3C22.9199 17.82 18.4399 22.3 12.9199 22.3C7.39992 22.3 2.91992 17.82 2.91992 12.3ZM20.9199 12.3C20.9199 7.89005 17.3299 4.30005 12.9199 4.30005C8.50992 4.30005 4.91992 7.89005 4.91992 12.3C4.91992 16.71 8.50992 20.3 12.9199 20.3C17.3299 20.3 20.9199 16.71 20.9199 12.3ZM9.91992 11.3C9.36992 11.3 8.91992 11.75 8.91992 12.3C8.91992 12.85 9.36992 13.3 9.91992 13.3H15.9199C16.4699 13.3 16.9199 12.85 16.9199 12.3C16.9199 11.75 16.4699 11.3 15.9199 11.3H9.91992Z" fill="white"/>
</svg>
