<svg width="25" height="25" viewBox="0 0 25 25" fill="none" xmlns="http://www.w3.org/2000/svg">
<path fill-rule="evenodd" clip-rule="evenodd" d="M2.89014 12.26C2.89014 6.74001 7.37014 2.26001 12.8901 2.26001C18.4101 2.26001 22.8901 6.74001 22.8901 12.26C22.8901 17.78 18.4101 22.26 12.8901 22.26C7.37014 22.26 2.89014 17.78 2.89014 12.26ZM20.8901 12.26C20.8901 7.85001 17.3001 4.26001 12.8901 4.26001C8.48014 4.26001 4.89014 7.85001 4.89014 12.26C4.89014 16.67 8.48014 20.26 12.8901 20.26C17.3001 20.26 20.8901 16.68 20.8901 12.26ZM12.8901 17.26C12.3401 17.26 11.8901 16.81 11.8901 16.26V13.26H8.89014C8.34014 13.26 7.89014 12.81 7.89014 12.26C7.89014 11.71 8.34014 11.26 8.89014 11.26H11.8901V8.26001C11.8901 7.71001 12.3401 7.26001 12.8901 7.26001C13.4401 7.26001 13.8901 7.71001 13.8901 8.26001V11.26H16.8901C17.4401 11.26 17.8901 11.71 17.8901 12.26C17.8901 12.81 17.4401 13.26 16.8901 13.26H13.8901V16.26C13.8901 16.82 13.4401 17.26 12.8901 17.26Z" fill="white"/>
</svg>
