<svg width="25" height="25" viewBox="0 0 25 25" fill="none" xmlns="http://www.w3.org/2000/svg">
<path fill-rule="evenodd" clip-rule="evenodd" d="M12.9199 2.30005C7.39992 2.30005 2.91992 6.78005 2.91992 12.3C2.91992 17.82 7.39992 22.3 12.9199 22.3C18.4399 22.3 22.9199 17.82 22.9199 12.3C22.9199 6.78005 18.4399 2.30005 12.9199 2.30005ZM11.9199 16.3C11.9199 16.85 12.3699 17.3 12.9199 17.3C13.4699 17.3 13.9199 16.85 13.9199 16.3V13.3H16.9199C17.4699 13.3 17.9199 12.85 17.9199 12.3C17.9199 11.75 17.4699 11.3 16.9199 11.3H13.9199V8.30005C13.9199 7.75005 13.4699 7.30005 12.9199 7.30005C12.3699 7.30005 11.9199 7.75005 11.9199 8.30005V11.3H8.91992C8.36992 11.3 7.91992 11.75 7.91992 12.3C7.91992 12.85 8.36992 13.3 8.91992 13.3H11.9199V16.3Z" fill="white"/>
</svg>
