<svg width="16" height="18" viewBox="0 0 16 18" fill="none" xmlns="http://www.w3.org/2000/svg">
<path fill-rule="evenodd" clip-rule="evenodd" d="M9.5 0.351944C10.26 0.351944 11.01 1.32972 11 2.3075H15C15.55 2.3075 16 2.7475 16 3.28528C16 3.82305 15.55 4.26305 15 4.26305H1C0.45 4.26305 0 3.82305 0 3.28528C0 2.7475 0.45 2.3075 1 2.3075H5C5 1.32972 5.75 0.351944 6.5 0.351944H9.5ZM7 2.3075H9V1.32972H7V2.3075ZM1 4.26305V15.2826C1 16.7591 2.62 17.9519 4 17.9519H12C13.39 17.9519 15 16.6906 15 15.2142V4.26305H1ZM5.00999 6.75641C5.00999 6.46307 5.46999 6.21861 6.00999 6.21861C6.54999 6.21861 6.99001 6.46307 6.99001 6.75641V14.4808C6.99001 14.7742 6.54999 15.0186 6.00999 15.0186C5.46999 15.0186 5.00999 14.7742 5.00999 14.4808V6.75641ZM10.99 14.4808V6.75641C10.99 6.46307 10.55 6.21861 10.01 6.21861C9.46999 6.21861 9.00999 6.46307 9.00999 6.75641V14.4808C9.00999 14.7742 9.46999 15.0186 10.01 15.0186C10.55 15.0186 10.99 14.7742 10.99 14.4808Z" fill="white"/>
</svg>
