<svg width="26" height="26" viewBox="0 0 26 26" fill="none" xmlns="http://www.w3.org/2000/svg">
<path fill-rule="evenodd" clip-rule="evenodd" d="M16.0065 25.541C15.176 25.7414 14.4315 25.0685 14.4315 24.2094V24.1664C14.4315 23.4505 14.9612 22.8635 15.6485 22.6773C19.901 21.5175 23.0224 17.623 23.0224 13.0125C23.0224 8.40209 19.901 4.50754 15.6485 3.34777C14.9612 3.16163 14.4315 2.5603 14.4315 1.85871V1.81572C14.4315 0.956624 15.176 0.297998 16.0065 0.484135C21.6765 1.84436 25.886 6.94163 25.886 13.0125C25.886 19.0835 21.6765 24.1807 16.0065 25.541ZM11.4103 3.13296L5.84055 8.70276H0.82919C0.428281 8.70276 0.113281 9.01776 0.113281 9.41867V16.5778C0.113281 16.9787 0.428281 17.2937 0.82919 17.2937H5.84055L11.4103 22.8635C11.9974 23.4505 12.9996 23.0352 12.9996 22.2048V3.79163C12.9996 2.96118 11.9974 2.54592 11.4103 3.13296ZM15.8633 17.981C15.8633 18.4535 16.3072 18.7971 16.7367 18.5967C18.7556 17.6803 20.1587 15.6041 20.1587 13.1844C20.1587 10.7646 18.7556 8.68849 16.7367 7.77213C16.3072 7.57167 15.8633 7.9153 15.8633 8.3878V17.981Z" fill="#277D98"/>
</svg>
